<svg width="46" height="41" viewBox="0 0 46 41" fill="none" xmlns="http://www.w3.org/2000/svg">
<path d="M22.8865 0C13.4458 0 5.72162 7.72419 5.72162 17.1649V22.8865H2.86081C2.10208 22.8865 1.37442 23.1879 0.837912 23.7244C0.301406 24.2609 0 24.9886 0 25.7473L0 37.1905C0 37.9493 0.301406 38.6769 0.837912 39.2134C1.37442 39.7499 2.10208 40.0513 2.86081 40.0513H8.58243C9.34116 40.0513 10.0688 39.7499 10.6053 39.2134C11.1418 38.6769 11.4432 37.9493 11.4432 37.1905V17.1649C11.4432 10.8139 16.5355 5.72162 22.8865 5.72162C29.2375 5.72162 34.3297 10.8139 34.3297 17.1649V37.1905C34.3297 37.9493 34.6311 38.6769 35.1676 39.2134C35.7041 39.7499 36.4318 40.0513 37.1905 40.0513H42.9121C43.6709 40.0513 44.3985 39.7499 44.935 39.2134C45.4715 38.6769 45.7729 37.9493 45.7729 37.1905V25.7473C45.7729 24.9886 45.4715 24.2609 44.935 23.7244C44.3985 23.1879 43.6709 22.8865 42.9121 22.8865H40.0513V17.1649C40.0513 7.72419 32.3271 0 22.8865 0Z" fill="black"/>
</svg>
