<svg width="27" height="53" viewBox="0 0 27 53" fill="none" xmlns="http://www.w3.org/2000/svg">
<path d="M19.8507 0C16.2114 0 13.2338 2.9776 13.2338 6.61689C13.2338 10.2562 16.2114 13.2338 19.8507 13.2338C23.4899 13.2338 26.4675 10.2562 26.4675 6.61689C26.4675 2.9776 23.4899 0 19.8507 0ZM9.92533 16.5422C4.43331 16.5422 0 20.9755 0 26.4675H6.61689C6.61689 24.6148 8.0726 23.1591 9.92533 23.1591C11.7781 23.1591 13.2338 24.6148 13.2338 26.4675C13.2338 28.3203 6.61689 37.3192 6.61689 43.0098C6.61689 48.7003 11.0502 52.9351 16.5422 52.9351C22.0342 52.9351 26.4675 48.5018 26.4675 43.0098H19.8507C19.8507 44.8625 18.3949 46.3182 16.5422 46.3182C14.6895 46.3182 13.2338 44.8625 13.2338 43.0098C13.2338 40.6277 19.8507 30.8347 19.8507 26.4675C19.8507 21.1079 15.4173 16.5422 9.92533 16.5422Z" fill="black"/>
</svg>
